<svg width="165" height="36" viewBox="0 0 165 36" fill="none" xmlns="http://www.w3.org/2000/svg">
<g clip-path="url(#clip0_1_31)">
<path d="M5.2775 27.214C6.69194 28.2318 8.9852 28.2318 10.3997 27.214C11.8141 26.1963 11.8141 24.5461 10.3997 23.5284C8.9852 22.5106 6.69194 22.5106 5.2775 23.5284C3.86306 24.5461 3.86306 26.1963 5.2775 27.214Z" fill="#3C8D75"/>
<path d="M19.9581 13.393C22.0798 14.9196 25.5197 14.9196 27.6414 13.393C29.763 11.8664 29.763 9.39124 27.6414 7.86462C25.5197 6.33799 22.0798 6.33799 19.9581 7.86462C17.8365 9.39124 17.8365 11.8664 19.9581 13.393Z" fill="#3C8D75"/>
<path d="M12.1651 20.3035C13.9331 21.5757 16.7997 21.5757 18.5677 20.3035C20.3358 19.0313 20.3358 16.9687 18.5677 15.6965C16.7997 14.4244 13.9331 14.4244 12.1651 15.6965C10.397 16.9687 10.397 19.0313 12.1651 20.3035Z" fill="#3C8D75"/>
<path d="M0.795623 19.3821C1.85645 20.1454 3.5764 20.1454 4.63723 19.3821C5.69806 18.6188 5.69806 17.3813 4.63723 16.6179C3.5764 15.8546 1.85645 15.8546 0.795623 16.6179C-0.265208 17.3813 -0.265207 18.6188 0.795623 19.3821Z" fill="#3C8D75"/>
<path d="M12.1651 5.56113C13.9331 6.83331 16.7997 6.83331 18.5677 5.56113C20.3358 4.28894 20.3358 2.22632 18.5677 0.954141C16.7997 -0.318047 13.9331 -0.318048 12.1651 0.954141C10.397 2.22632 10.397 4.28894 12.1651 5.56113Z" fill="#3C8D75"/>
<path d="M5.2775 12.4716C6.69194 13.4894 8.98521 13.4894 10.3997 12.4716C11.8141 11.4539 11.8141 9.80374 10.3997 8.78603C8.98521 7.76828 6.69194 7.76828 5.2775 8.78603C3.86306 9.80374 3.86307 11.4539 5.2775 12.4716Z" fill="#3C8D75"/>
<path d="M12.1651 35.0459C13.9331 36.318 16.7997 36.318 18.5677 35.0459C20.3358 33.7737 20.3358 31.7111 18.5677 30.4389C16.7997 29.1667 13.9331 29.1667 12.1651 30.4389C10.397 31.7111 10.397 33.7737 12.1651 35.0459Z" fill="#3C8D75"/>
<path d="M29.2969 20.7642C31.4186 22.2908 34.8586 22.2908 36.9802 20.7642C39.1019 19.2376 39.1019 16.7625 36.9802 15.2359C34.8586 13.7092 31.4186 13.7092 29.2969 15.2359C27.1753 16.7625 27.1753 19.2376 29.2969 20.7642Z" fill="#3C8D75"/>
<path d="M19.9581 28.1353C22.0798 29.662 25.5197 29.662 27.6414 28.1353C29.763 26.6087 29.763 24.1336 27.6414 22.607C25.5197 21.0804 22.0798 21.0804 19.9581 22.607C17.8365 24.1336 17.8365 26.6087 19.9581 28.1353Z" fill="#3C8D75"/>
</g>
<path d="M45.9561 26C45.9479 25.9593 45.9438 25.9146 45.9438 25.8657C45.9438 25.8088 45.9438 25.7599 45.9438 25.7192C45.9438 24.995 45.9886 24.3439 46.0781 23.7661C46.1758 23.1802 46.3182 22.6471 46.5054 22.167C46.7007 21.6787 46.9489 21.2311 47.25 20.8242C47.5511 20.4092 47.9092 20.0104 48.3242 19.6279C48.7393 19.2373 49.2113 18.8467 49.7402 18.4561C50.2773 18.0654 50.8755 17.6463 51.5347 17.1987C52.0718 16.8325 52.5112 16.5111 52.853 16.2344C53.203 15.9577 53.4756 15.6973 53.6709 15.4531C53.8662 15.2008 54.0005 14.9567 54.0737 14.7207C54.1551 14.4766 54.1958 14.208 54.1958 13.915C54.1958 13.2721 53.9557 12.7716 53.4756 12.4136C52.9954 12.0474 52.3525 11.8643 51.5469 11.8643C51.0179 11.8643 50.5744 11.9294 50.2163 12.0596C49.8664 12.1816 49.5856 12.3607 49.374 12.5967C49.1624 12.8327 49.0078 13.1257 48.9102 13.4756C48.8206 13.8174 48.7677 14.208 48.7515 14.6475L46.3101 14.4766L46.3223 11.3027C47.0628 10.7412 47.9051 10.3384 48.8491 10.0942C49.8013 9.84196 50.8592 9.71582 52.0229 9.71582C52.91 9.71582 53.7035 9.81755 54.4033 10.021C55.1113 10.2244 55.7095 10.5215 56.1978 10.9121C56.686 11.2946 57.0563 11.7625 57.3086 12.3159C57.569 12.8693 57.6992 13.4959 57.6992 14.1958C57.6992 14.8062 57.5853 15.3473 57.3574 15.8193C57.1377 16.2832 56.8285 16.7145 56.4297 17.1133C56.0391 17.5039 55.5671 17.8783 55.0137 18.2363C54.4603 18.5944 53.854 18.9728 53.1948 19.3716C52.5601 19.7541 51.9904 20.1203 51.4858 20.4702C50.9894 20.8201 50.5662 21.1701 50.2163 21.52C49.8745 21.8618 49.61 22.2118 49.4229 22.5698C49.2357 22.9198 49.1421 23.2819 49.1421 23.6562H54.1348C54.444 23.6562 54.6841 23.6318 54.855 23.583C55.034 23.526 55.1683 23.408 55.2578 23.229C55.3555 23.05 55.4206 22.7936 55.4531 22.46C55.4857 22.1182 55.5101 21.6624 55.5264 21.0928H57.5894V26H45.9561ZM60.958 10.0332C61.015 10.0332 61.1574 10.0373 61.3853 10.0454C61.6213 10.0454 61.8857 10.0495 62.1787 10.0576C62.4717 10.0576 62.7646 10.0617 63.0576 10.0698C63.3587 10.0698 63.6069 10.0698 63.8022 10.0698C64.1929 10.0698 64.5754 10.0698 64.9497 10.0698C65.3241 10.0698 65.7065 10.0698 66.0972 10.0698C66.4878 10.0617 66.8947 10.0576 67.3179 10.0576C67.741 10.0495 68.1968 10.0413 68.6851 10.0332V12.2061H67.8916C67.6149 12.2061 67.3993 12.2467 67.2446 12.3281C67.09 12.4095 66.972 12.5153 66.8906 12.6455C66.8174 12.7757 66.7726 12.9263 66.7563 13.0972C66.7401 13.2599 66.7319 13.4268 66.7319 13.5977V18.6514C66.7319 20.1081 66.736 21.756 66.7441 23.5952H70.687C70.9963 23.5952 71.2363 23.5301 71.4072 23.3999C71.5863 23.2697 71.7165 23.0785 71.7979 22.8262C71.8874 22.5658 71.9443 22.2484 71.9688 21.874C71.9932 21.4997 72.0054 21.0684 72.0054 20.5801H74.2393V26H60.958V23.8271H61.5317C61.8247 23.8271 62.0526 23.7905 62.2153 23.7173C62.3862 23.644 62.5083 23.5464 62.5815 23.4243C62.6629 23.3022 62.7118 23.1558 62.728 22.9849C62.7443 22.814 62.7524 22.6309 62.7524 22.4355V13.9272V13.4512C62.7524 13.2884 62.7402 13.1338 62.7158 12.9873C62.6914 12.8327 62.6385 12.6984 62.5571 12.5845C62.4757 12.4705 62.3537 12.381 62.1909 12.3159C62.0282 12.2427 61.8084 12.2061 61.5317 12.2061H60.958V10.0332ZM87.1294 12.6821C87.3166 12.5194 87.4102 12.4014 87.4102 12.3281C87.4102 12.263 87.3573 12.2264 87.2515 12.2183C87.1457 12.2101 86.9992 12.2061 86.812 12.2061H85.5425V10.0454C85.6076 10.0454 85.7337 10.0495 85.9209 10.0576C86.1162 10.0576 86.34 10.0576 86.5923 10.0576C86.8527 10.0576 87.1253 10.0576 87.4102 10.0576C87.695 10.0576 87.9635 10.0576 88.2158 10.0576C88.4762 10.0576 88.7041 10.0576 88.8994 10.0576C89.0947 10.0576 89.2249 10.0576 89.29 10.0576L92.8789 10.0454V12.2061C92.8382 12.2061 92.7812 12.2061 92.708 12.2061C92.6429 12.2061 92.5737 12.2061 92.5005 12.2061C92.4272 12.2061 92.3581 12.2101 92.293 12.2183C92.2279 12.2183 92.179 12.2183 92.1465 12.2183C91.8128 12.2264 91.5199 12.2508 91.2676 12.2915C91.0234 12.3241 90.7874 12.3851 90.5596 12.4746C90.3317 12.556 90.1038 12.674 89.876 12.8286C89.6562 12.9832 89.404 13.1867 89.1191 13.439L84.9565 17.1133L90.4375 22.814C90.6735 23.0581 90.9543 23.2778 91.2798 23.4731C91.6053 23.6603 92.0122 23.7743 92.5005 23.8149C92.5249 23.8149 92.5656 23.819 92.6226 23.8271C92.6877 23.8271 92.7568 23.8271 92.8301 23.8271C92.9033 23.8271 92.9725 23.8271 93.0376 23.8271C93.1027 23.8271 93.1475 23.8271 93.1719 23.8271V26C93.1068 26 92.9766 26 92.7812 26C92.5859 26 92.3581 26 92.0977 26C91.8372 26 91.5565 26 91.2554 26C90.9624 25.9919 90.6816 25.9878 90.4131 25.9878C90.1445 25.9878 89.9004 25.9878 89.6807 25.9878C89.4691 25.9878 89.3185 25.9878 89.229 25.9878C89.1395 25.9878 88.9889 25.9878 88.7773 25.9878C88.5739 25.9878 88.3338 25.9878 88.0571 25.9878C87.7886 25.9878 87.5037 25.9919 87.2026 26C86.9097 26 86.633 26 86.3726 26C86.1121 26 85.8843 26 85.689 26C85.5018 26 85.3797 26 85.3228 26V23.8271H86.2993C86.6004 23.8271 86.751 23.7905 86.751 23.7173C86.751 23.6522 86.6615 23.5179 86.4824 23.3145L82.3809 18.8345L81.6362 19.4326V22.582C81.6362 22.7773 81.6444 22.9523 81.6606 23.1069C81.6769 23.2534 81.7217 23.3836 81.7949 23.4976C81.8682 23.6034 81.9862 23.6847 82.1489 23.7417C82.3117 23.7987 82.5396 23.8271 82.8325 23.8271H83.394V26C83.3289 26 83.2028 26 83.0156 26C82.8366 26 82.6209 26 82.3687 26C82.1245 26 81.86 26 81.5752 26C81.2985 25.9919 81.0299 25.9878 80.7695 25.9878C80.5173 25.9878 80.2894 25.9878 80.0859 25.9878C79.8825 25.9878 79.736 25.9878 79.6465 25.9878C79.557 25.9878 79.4105 25.9878 79.207 25.9878C79.0117 25.9878 78.7839 25.9878 78.5234 25.9878C78.2712 25.9878 78.0026 25.9919 77.7178 26C77.4411 26 77.1766 26 76.9243 26C76.672 26 76.4523 26 76.2651 26C76.0861 26 75.964 26 75.8989 26V23.8271H76.4482C76.7412 23.8271 76.9691 23.7946 77.1318 23.7295C77.2946 23.6644 77.4126 23.5749 77.4858 23.4609C77.5591 23.347 77.6038 23.2168 77.6201 23.0703C77.6364 22.9157 77.6445 22.7489 77.6445 22.5698V13.5244C77.6445 13.3372 77.6364 13.1663 77.6201 13.0117C77.6038 12.849 77.555 12.7106 77.4736 12.5967C77.4004 12.4746 77.2824 12.381 77.1196 12.3159C76.9569 12.2427 76.7331 12.2061 76.4482 12.2061H75.8989V10.0332C76.2651 10.0332 76.5988 10.0373 76.8999 10.0454C77.2091 10.0535 77.498 10.0617 77.7666 10.0698C78.0352 10.0698 78.2874 10.0698 78.5234 10.0698C78.7676 10.0698 79.0117 10.0698 79.2559 10.0698C79.5 10.0698 79.8011 10.0698 80.1592 10.0698C80.5173 10.0617 80.8916 10.0576 81.2822 10.0576C81.6729 10.0495 82.0635 10.0454 82.4541 10.0454C82.8529 10.0373 83.215 10.0332 83.5405 10.0332V12.2061H82.8447C82.5599 12.2061 82.3361 12.2467 82.1733 12.3281C82.0106 12.4014 81.8885 12.5031 81.8071 12.6333C81.7257 12.7554 81.6769 12.8978 81.6606 13.0605C81.6444 13.2233 81.6362 13.3861 81.6362 13.5488V17.6748L87.1294 12.6821ZM107.1 14.4888H104.756C104.723 14.383 104.695 14.2812 104.67 14.1836C104.654 14.0859 104.634 13.9883 104.609 13.8906C104.471 13.1663 104.162 12.613 103.682 12.2305C103.201 11.8398 102.473 11.6445 101.497 11.6445C101.098 11.6445 100.74 11.6934 100.422 11.791C100.105 11.8887 99.8324 12.027 99.6045 12.2061C99.3848 12.3851 99.2139 12.5967 99.0918 12.8408C98.9697 13.085 98.9087 13.3576 98.9087 13.6587C98.9087 14.1226 99.0511 14.505 99.3359 14.8062C99.6208 15.1073 100.007 15.3799 100.496 15.624C100.984 15.86 101.549 16.092 102.192 16.3198C102.835 16.5396 103.515 16.804 104.231 17.1133C104.703 17.3086 105.146 17.5405 105.562 17.8091C105.985 18.0695 106.355 18.3787 106.672 18.7368C106.99 19.0868 107.238 19.4977 107.417 19.9697C107.604 20.4336 107.698 20.9666 107.698 21.5688C107.698 22.2118 107.572 22.8221 107.319 23.3999C107.067 23.9696 106.705 24.4741 106.233 24.9136C105.769 25.3449 105.199 25.6867 104.524 25.939C103.848 26.1912 103.088 26.3174 102.241 26.3174C101.834 26.3174 101.427 26.2808 101.021 26.2075C100.622 26.1424 100.235 26.0448 99.8608 25.9146C99.4946 25.7843 99.1488 25.6257 98.8232 25.4385C98.5059 25.2513 98.2251 25.0397 97.981 24.8037V26H95.3076V21.0439H97.6514C97.7002 21.2555 97.749 21.4508 97.7979 21.6299C97.8792 22.0449 97.9972 22.4152 98.1519 22.7407C98.3146 23.0581 98.5303 23.3267 98.7988 23.5464C99.0674 23.7661 99.397 23.9329 99.7876 24.0469C100.178 24.1608 100.646 24.2178 101.191 24.2178C101.606 24.2178 101.981 24.1689 102.314 24.0713C102.656 23.9736 102.949 23.8353 103.193 23.6562C103.438 23.4691 103.625 23.2412 103.755 22.9727C103.885 22.696 103.95 22.3867 103.95 22.0449C103.95 21.5811 103.808 21.1945 103.523 20.8853C103.246 20.5679 102.876 20.2912 102.412 20.0552C101.956 19.8192 101.44 19.6035 100.862 19.4082C100.284 19.2048 99.6981 18.981 99.104 18.7368C97.8182 18.2078 96.862 17.5853 96.2354 16.8691C95.6169 16.153 95.3076 15.2863 95.3076 14.269C95.3076 13.6261 95.4256 13.028 95.6616 12.4746C95.9058 11.9212 96.2557 11.4411 96.7114 11.0342C97.1753 10.6273 97.7368 10.3099 98.396 10.082C99.0552 9.84603 99.8079 9.72803 100.654 9.72803C101.387 9.72803 102.107 9.81755 102.815 9.99658C103.531 10.1756 104.202 10.5133 104.829 11.0098C104.829 10.8958 104.825 10.7819 104.817 10.668C104.817 10.554 104.817 10.4482 104.817 10.3506V10.021C104.866 10.021 104.972 10.021 105.134 10.021C105.305 10.021 105.5 10.0251 105.72 10.0332C105.948 10.0332 106.184 10.0332 106.428 10.0332C106.681 10.0332 106.904 10.0332 107.1 10.0332V14.4888ZM110.175 10.0332C110.297 10.0332 110.509 10.0373 110.81 10.0454C111.119 10.0454 111.461 10.0454 111.835 10.0454C112.218 10.0454 112.6 10.0495 112.983 10.0576C113.374 10.0576 113.711 10.0576 113.996 10.0576C114.183 10.0576 114.411 10.0576 114.68 10.0576C114.948 10.0576 115.237 10.0576 115.546 10.0576C115.864 10.0495 116.193 10.0454 116.535 10.0454C116.877 10.0373 117.215 10.0332 117.548 10.0332V12.2061H117.121C116.804 12.2061 116.56 12.2345 116.389 12.2915C116.226 12.3485 116.104 12.4299 116.022 12.5356C115.941 12.6333 115.892 12.7554 115.876 12.9019C115.868 13.0483 115.864 13.207 115.864 13.3779V16.7837H122.309V13.1582C122.309 12.971 122.289 12.8164 122.248 12.6943C122.215 12.5723 122.15 12.4746 122.053 12.4014C121.963 12.3281 121.837 12.2793 121.674 12.2549C121.512 12.2223 121.304 12.2061 121.052 12.2061H120.625V10.0332C121.414 10.0495 122.142 10.0576 122.81 10.0576C123.477 10.0576 124.124 10.0576 124.75 10.0576C124.905 10.0576 125.1 10.0576 125.336 10.0576C125.581 10.0576 125.849 10.0576 126.142 10.0576C126.435 10.0495 126.744 10.0454 127.07 10.0454C127.395 10.0373 127.713 10.0332 128.022 10.0332V12.2061H127.631C127.314 12.2061 127.066 12.2305 126.887 12.2793C126.708 12.32 126.573 12.3892 126.484 12.4868C126.403 12.5763 126.35 12.6903 126.325 12.8286C126.309 12.9588 126.301 13.1094 126.301 13.2803V22.4844C126.301 22.7204 126.305 22.9238 126.313 23.0947C126.321 23.2575 126.362 23.3958 126.435 23.5098C126.516 23.6156 126.647 23.6969 126.826 23.7539C127.013 23.8027 127.281 23.8271 127.631 23.8271H128.022V26C127.729 26 127.444 26 127.167 26C126.899 25.9919 126.622 25.9878 126.337 25.9878C126.053 25.9878 125.747 25.9878 125.422 25.9878C125.104 25.9797 124.75 25.9756 124.36 25.9756C123.627 25.9756 122.96 25.9797 122.358 25.9878C121.764 25.9959 121.186 26 120.625 26V23.8271H121.052C121.345 23.8271 121.573 23.8109 121.735 23.7783C121.906 23.7458 122.032 23.6847 122.114 23.5952C122.203 23.4976 122.256 23.3714 122.272 23.2168C122.297 23.054 122.309 22.8506 122.309 22.6064V18.8833H115.864V22.8384C115.864 23.0825 115.88 23.2738 115.913 23.4121C115.953 23.5423 116.022 23.64 116.12 23.7051C116.218 23.762 116.348 23.7987 116.511 23.8149C116.674 23.8231 116.877 23.8271 117.121 23.8271H117.548V26C117.247 26 116.954 26 116.669 26C116.393 25.9919 116.104 25.9878 115.803 25.9878C115.51 25.9878 115.196 25.9878 114.863 25.9878C114.529 25.9797 114.159 25.9756 113.752 25.9756C113.369 25.9756 113.02 25.9797 112.702 25.9878C112.393 25.9878 112.096 25.9878 111.811 25.9878C111.526 25.9878 111.25 25.9919 110.981 26C110.721 26 110.452 26 110.175 26V23.8271H110.554C110.879 23.8271 111.132 23.7946 111.311 23.7295C111.49 23.6562 111.62 23.5586 111.701 23.4365C111.791 23.3145 111.84 23.172 111.848 23.0093C111.864 22.8384 111.872 22.6553 111.872 22.46V13.1948C111.872 13.0321 111.86 12.8896 111.835 12.7676C111.819 12.6374 111.766 12.5316 111.677 12.4502C111.587 12.3688 111.453 12.3078 111.274 12.2671C111.103 12.2264 110.863 12.2061 110.554 12.2061H110.175V10.0332ZM139.057 9.72803C140.399 9.72803 141.588 9.93962 142.621 10.3628C143.663 10.786 144.538 11.3719 145.246 12.1206C145.962 12.8612 146.503 13.736 146.869 14.7451C147.243 15.7542 147.431 16.8407 147.431 18.0044C147.431 19.1681 147.243 20.2546 146.869 21.2637C146.503 22.2728 145.966 23.1517 145.258 23.9004C144.55 24.6491 143.679 25.2391 142.646 25.6704C141.612 26.1017 140.428 26.3174 139.093 26.3174C137.742 26.3174 136.542 26.1058 135.492 25.6826C134.442 25.2594 133.559 24.6776 132.843 23.937C132.127 23.1883 131.582 22.3094 131.208 21.3003C130.833 20.283 130.646 19.1844 130.646 18.0044C130.646 16.8407 130.829 15.7583 131.195 14.7573C131.562 13.7482 132.099 12.8734 132.807 12.1328C133.523 11.3841 134.402 10.7982 135.443 10.375C136.493 9.94368 137.698 9.72803 139.057 9.72803ZM139.044 12.0962C138.345 12.0962 137.742 12.2305 137.238 12.499C136.741 12.7676 136.33 13.1582 136.005 13.6709C135.688 14.1755 135.451 14.7939 135.297 15.5264C135.15 16.2507 135.077 17.0685 135.077 17.98C135.077 18.9321 135.159 19.7785 135.321 20.519C135.484 21.2596 135.728 21.8862 136.054 22.3989C136.379 22.9035 136.79 23.29 137.287 23.5586C137.783 23.819 138.369 23.9492 139.044 23.9492C139.728 23.9492 140.318 23.8149 140.814 23.5464C141.319 23.2697 141.73 22.875 142.047 22.3623C142.373 21.8496 142.613 21.2271 142.768 20.4946C142.93 19.7541 143.012 18.9199 143.012 17.9922C143.012 16.0879 142.686 14.6312 142.035 13.6221C141.384 12.6048 140.387 12.0962 139.044 12.0962ZM158.38 10.0332C159.576 10.0332 160.593 10.1512 161.432 10.3872C162.27 10.6151 162.953 10.9365 163.482 11.3516C164.011 11.7666 164.398 12.2671 164.642 12.853C164.886 13.4308 165.008 14.0697 165.008 14.7695C165.008 15.4613 164.898 16.092 164.679 16.6616C164.459 17.2313 164.089 17.7236 163.568 18.1387C163.055 18.5456 162.372 18.863 161.517 19.0908C160.671 19.3105 159.613 19.4204 158.343 19.4204H155.914V22.6675C155.914 22.9279 155.93 23.1354 155.963 23.29C156.004 23.4447 156.069 23.5627 156.158 23.644C156.248 23.7173 156.374 23.7661 156.537 23.7905C156.699 23.8149 156.911 23.8271 157.171 23.8271H157.782V26C157.497 26 157.22 26 156.952 26C156.683 25.9919 156.406 25.9878 156.122 25.9878C155.837 25.9878 155.532 25.9878 155.206 25.9878C154.889 25.9797 154.543 25.9756 154.168 25.9756C153.753 25.9756 153.363 25.9797 152.997 25.9878C152.639 25.9878 152.289 25.9878 151.947 25.9878C151.613 25.9878 151.288 25.9919 150.97 26C150.653 26 150.335 26 150.018 26V23.8271H150.628C150.93 23.8271 151.166 23.8109 151.336 23.7783C151.515 23.7458 151.646 23.6807 151.727 23.583C151.808 23.4772 151.857 23.3348 151.874 23.1558C151.898 22.9686 151.91 22.7244 151.91 22.4233V13.5366C151.91 13.3413 151.902 13.1663 151.886 13.0117C151.869 12.849 151.821 12.7106 151.739 12.5967C151.658 12.4746 151.536 12.381 151.373 12.3159C151.21 12.2427 150.982 12.2061 150.689 12.2061H150.018V10.0332H158.38ZM155.914 17.272H157.892C158.909 17.272 159.674 17.0645 160.187 16.6494C160.699 16.2344 160.956 15.5996 160.956 14.7451C160.956 14.3301 160.895 13.9679 160.772 13.6587C160.65 13.3413 160.459 13.0809 160.199 12.8774C159.938 12.6659 159.601 12.5072 159.186 12.4014C158.771 12.2956 158.266 12.2427 157.672 12.2427H155.914V17.272Z" fill="#3C8D75"/>
<defs>
<clipPath id="clip0_1_31">
<rect width="38.5714" height="36" fill="white"/>
</clipPath>
</defs>
</svg>
